<!-- Generated by IcoMoon.io -->
<svg version="1.1" xmlns="http://www.w3.org/2000/svg" width="24" height="24" viewBox="0 0 24 24">
<path fill="#1a73e8" d="M14.397 2.386c0.203-0.204 0.484-0.33 0.795-0.33 0.137 0 0.269 0.025 0.39 0.070l-0.008-0.003c4.073 1.506 6.925 5.357 6.925 9.874 0 5.8-4.702 10.502-10.502 10.502-4.517 0-8.367-2.851-9.85-6.852l-0.024-0.073c-0.042-0.114-0.067-0.245-0.067-0.382 0-0.621 0.504-1.125 1.125-1.125 0.138 0 0.269 0.025 0.391 0.070l-0.008-0.003c0.837 0.313 1.804 0.495 2.814 0.495 4.556 0 8.25-3.694 8.25-8.25 0-1.010-0.181-1.977-0.513-2.871l0.019 0.057c-0.043-0.114-0.067-0.246-0.067-0.383 0-0.311 0.126-0.592 0.33-0.796v0zM16.821 5.304c0.035 0.321 0.055 0.694 0.055 1.072 0 5.799-4.701 10.5-10.5 10.5-0.378 0-0.75-0.020-1.118-0.059l0.046 0.004c1.516 2.080 3.945 3.417 6.685 3.417 4.556 0 8.248-3.693 8.248-8.248 0-2.74-1.336-5.169-3.393-6.669l-0.023-0.016z"></path>
</svg>
