<!-- Generated by IcoMoon.io -->
<svg version="1.1" xmlns="http://www.w3.org/2000/svg" width="24" height="24" viewBox="0 0 24 24">
<path fill="#1a73e8" d="M12 18c-3.314 0-6-2.686-6-6s2.686-6 6-6v0c3.314 0 6 2.686 6 6s-2.686 6-6 6v0zM12 15.75c2.071 0 3.75-1.679 3.75-3.75s-1.679-3.75-3.75-3.75v0c-2.071 0-3.75 1.679-3.75 3.75s1.679 3.75 3.75 3.75v0zM20.486 3.514c0.204 0.204 0.33 0.485 0.33 0.796s-0.126 0.592-0.33 0.796l-1.591 1.59c-0.206 0.221-0.498 0.359-0.823 0.359-0.523 0-0.962-0.357-1.087-0.84l-0.002-0.008c-0.022-0.084-0.035-0.18-0.035-0.279 0-0.324 0.137-0.616 0.357-0.821l0.001-0.001 1.59-1.59c0.204-0.203 0.485-0.329 0.795-0.329s0.591 0.126 0.795 0.329l-0-0zM6.696 17.304c0.203 0.204 0.329 0.485 0.329 0.795s-0.126 0.591-0.329 0.795l-1.59 1.591c-0.205 0.212-0.492 0.344-0.81 0.344-0.621 0-1.125-0.504-1.125-1.125 0-0.317 0.131-0.604 0.343-0.809l1.59-1.592c0.204-0.204 0.485-0.33 0.796-0.33s0.592 0.126 0.796 0.33v0zM12 0c0.621 0 1.125 0.504 1.125 1.125v0 2.25c0 0.621-0.504 1.125-1.125 1.125s-1.125-0.504-1.125-1.125v0-2.25c0-0.621 0.504-1.125 1.125-1.125v0zM4.5 12c0 0.621-0.504 1.125-1.125 1.125v0h-2.25c-0.621 0-1.125-0.504-1.125-1.125s0.504-1.125 1.125-1.125v0h2.25c0.621 0 1.125 0.504 1.125 1.125v0zM24 12c0 0.621-0.504 1.125-1.125 1.125v0h-2.25c-0.621 0-1.125-0.504-1.125-1.125s0.504-1.125 1.125-1.125v0h2.25c0.621 0 1.125 0.504 1.125 1.125v0zM12 19.5c0.621 0 1.125 0.504 1.125 1.125v0 2.25c0 0.621-0.504 1.125-1.125 1.125s-1.125-0.504-1.125-1.125v0-2.25c0-0.621 0.504-1.125 1.125-1.125v0zM17.304 17.304c0.204-0.203 0.485-0.329 0.795-0.329s0.591 0.126 0.795 0.329l1.591 1.59c0.196 0.202 0.316 0.478 0.316 0.782 0 0.621-0.504 1.125-1.125 1.125-0.304 0-0.579-0.12-0.782-0.316l0 0-1.591-1.59c-0.204-0.204-0.33-0.485-0.33-0.796s0.126-0.592 0.33-0.796v0zM3.514 3.514c0.204-0.204 0.485-0.33 0.796-0.33s0.592 0.126 0.796 0.33l1.59 1.591c0.187 0.201 0.302 0.471 0.302 0.767 0 0.311-0.126 0.592-0.329 0.796l0-0c-0.204 0.203-0.485 0.329-0.796 0.329-0.297 0-0.567-0.115-0.768-0.303l0.001 0.001-1.59-1.59c-0.203-0.204-0.329-0.485-0.329-0.795s0.126-0.591 0.329-0.795l-0 0z"></path>
</svg>
